# File created by Blade
# Date/Time:  Thu Jan 22 19:34:15 2015
# Frame Rate: 120.000 fps
#------------------------------------------------------
:FULLY-SPECIFIED
:DEGREES
1136
root -13.377959 15.176174 -9.081182 26.637532 -31.211933 25.037337
RightUpLeg -128.225473 -22.850864 -5.208308
RightLeg 134.357940 -0.000000 -0.000000
RightFoot -45.059753 -8.598273 7.325095
RightToeBase -1.875576 -0.000000 0.000000
LeftUpLeg -11.633826 39.066232 25.937825
LeftLeg 3.861289 -0.000000 -0.000000
LeftFoot -6.524458 10.690019 -50.569429
LeftToeBase 17.035257 -0.000000 -0.000000
Spine 17.456859 6.198064 28.890281
RightShoulder -4.657456 -3.749956 -9.564446
RightArm 28.701978 34.812204 81.243685
RightForeArm -24.421136 -0.000000 34.380452
RightHand 29.145223 0.000000 -92.458205
RightHandThumb1 -24.326973 -0.000000 -32.862282
LeftShoulder -28.499425 -12.315797 62.129620
LeftArm 43.466365 -53.274533 -20.117361
LeftForeArm 12.800568 -0.000000 8.403704
LeftHand -1.049446 0.000000 25.278497
LeftHandThumb1 -26.253704 0.000000 33.147579
Head 6.940658 36.021463 45.848276
1137
root -13.371450 15.183146 -9.098215 26.701236 -31.224445 24.952587
RightUpLeg -128.243850 -22.771941 -5.136958
RightLeg 134.276284 -0.000000 -0.000000
RightFoot -45.022577 -8.645046 7.270889
RightToeBase -1.851653 -0.000000 0.000000
LeftUpLeg -11.670922 39.063671 26.009812
LeftLeg 3.901745 -0.000000 -0.000000
LeftFoot -6.552619 10.677759 -50.712762
LeftToeBase 16.967415 -0.000000 -0.000000
Spine 17.587121 6.210519 28.958723
RightShoulder -4.683996 -3.627947 -9.629584
RightArm 28.668336 34.843599 81.328722
RightForeArm -24.579052 -0.000000 34.507182
RightHand 29.181384 -0.000000 -92.253718
RightHandThumb1 -24.326973 -0.000000 -32.862282
LeftShoulder -28.380230 -12.300460 62.037554
LeftArm 42.127995 -52.918771 -19.698783
LeftForeArm 12.813391 -0.000000 8.102116
LeftHand -1.004981 -0.000000 25.308305
LeftHandThumb1 -26.253704 0.000000 33.147579
Head 6.701154 35.950661 45.459524
1138
root -13.364022 15.189813 -9.116820 26.768934 -31.223805 24.886698
RightUpLeg -128.275305 -22.706707 -5.082679
RightLeg 134.201744 -0.000000 -0.000000
RightFoot -45.010541 -8.754223 7.214261
RightToeBase -1.738038 -0.000000 0.000000
LeftUpLeg -11.740878 39.045801 26.048424
LeftLeg 3.936622 -0.000000 -0.000000
LeftFoot -6.602707 10.682159 -50.824391
LeftToeBase 16.970136 -0.000000 -0.000000
Spine 17.697630 6.216139 29.000277
RightShoulder -4.705005 -3.571270 -9.653911
RightArm 28.677879 34.811331 81.354780
RightForeArm -24.536843 -0.000000 34.637865
RightHand 29.203061 -0.000000 -92.181279
RightHandThumb1 -24.326973 -0.000000 -32.862282
LeftShoulder -28.226515 -12.166135 61.885562
LeftArm 40.571823 -52.439010 -19.026820
LeftForeArm 12.479536 -0.000000 7.827337
LeftHand -1.029892 -0.000000 25.768211
LeftHandThumb1 -26.253704 0.000000 33.147579
Head 6.431466 35.756099 45.057114
1139
root -13.358340 15.199224 -9.139273 26.859149 -31.220962 24.803432
RightUpLeg -128.304977 -22.610970 -5.021504
RightLeg 134.095487 -0.000000 -0.000000
RightFoot -44.992998 -8.812028 7.251373
RightToeBase -1.660814 -0.000000 0.000000
LeftUpLeg -11.837713 39.041679 26.086245
LeftLeg 3.972727 -0.000000 -0.000000
LeftFoot -6.648397 10.712079 -50.877852
LeftToeBase 16.960633 -0.000000 -0.000000
Spine 17.804778 6.232382 29.039378
RightShoulder -4.710604 -3.558952 -9.658080
RightArm 28.739123 34.771717 81.372470
RightForeArm -24.454473 -0.000000 34.745781
RightHand 29.215796 0.000000 -92.059478
RightHandThumb1 -24.326973 -0.000000 -32.862282
LeftShoulder -28.205699 -11.580308 61.676505
LeftArm 39.786617 -52.492956 -19.401248
LeftForeArm 12.492953 0.000000 7.738464
LeftHand -1.172828 0.000000 25.744985
LeftHandThumb1 -26.253704 0.000000 33.147579
Head 6.174777 35.673253 44.720216
